<?xml version="1.0" encoding="utf-8"?>
<!-- Generator: Adobe Illustrator 25.0.1, SVG Export Plug-In . SVG Version: 6.00 Build 0)  -->
<svg version="1.1" id="Layer_1" xmlns="http://www.w3.org/2000/svg" xmlns:xlink="http://www.w3.org/1999/xlink" x="0px" y="0px"
	 viewBox="0 0 231.06 90.82" style="enable-background:new 0 0 231.06 90.82;" xml:space="preserve">
<style type="text/css">
	.st0{clip-path:url(#SVGID_2_);fill:#F28021;}
	.st1{clip-path:url(#SVGID_4_);fill:#F28021;}
	.st2{clip-path:url(#SVGID_6_);fill:#F28021;}
	.st3{fill:#595A5C;}
</style>
<g>
	<g>
		<defs>
			<path id="SVGID_1_" d="M8.57,45.74v2.68c0.06,0.19,0.09,1.41,0.12,1.72c0.14,1.66,0.36,3.19,0.68,4.82
				c1.17,5.89,3.39,10.75,6.44,15.61c1.78,2.83,5.01,7.02,7.78,9.31c1.73,1.43,3.07,2.46,5.28,3.41c1.7,0.73,2.5,0.63,2.85,0.76h1.1
				c0.59-0.27,0.98-0.03,2.22-0.93c0.6-0.44,1.07-1,1.52-1.68c2.37-3.58,3.25-11.22,3.51-15.56c0.28-4.64,0.09-12.87-1.46-17.32
				c-0.7-2-1.64-3.64-2.99-4.97l-3.33-3c-0.29-0.24-0.58-0.45-0.88-0.69c-2.57-2.09-6.99-4.8-10.19-5.72
				c-7.87-2.27-11.33,1.95-12.35,8.67c-0.07,0.46-0.14,0.92-0.18,1.38C8.66,44.52,8.62,45.58,8.57,45.74"/>
		</defs>
		<use xlink:href="#SVGID_1_"  style="overflow:visible;fill-rule:evenodd;clip-rule:evenodd;fill:#F28021;"/>
		<clipPath id="SVGID_2_">
			<use xlink:href="#SVGID_1_"  style="overflow:visible;"/>
		</clipPath>
		<rect x="8.57" y="31.92" class="st0" width="31.78" height="52.13"/>
	</g>
	<g>
		<defs>
			<path id="SVGID_3_" d="M32.49,6.77h-3.27C29.03,6.84,26.83,6.95,26.37,7c-0.93,0.11-1.84,0.24-2.73,0.41
				c-1.68,0.32-3.4,0.82-4.81,1.48c-2.74,1.28-5.37,3.44-4.91,7.56c0.33,3.04,2.73,6.56,4.61,8.75c0.59,0.69,2.14,2.28,2.71,2.79
				c4,3.6,5.38,4.76,11.11,7.76c1.36,0.71,2.8,1.41,4.34,1.95c1.58,0.55,3.61,1.19,5.08,0.12c0.72-0.52,0.82-2,0.67-2.44
				c-0.16-0.47-1.12-0.87-1.37-1.78c-0.33-1.23,0.67-4.11,1.16-5.04c2.32-4.39,6.76-2.24,7.55-0.03c0.62,1.74-0.4,3.59-1.17,4.69
				c-0.44,0.63-0.94,1.13-1.35,1.8c-0.42,0.69-0.77,1.53-0.22,2.38c0.88,1.39,3.13,1.18,4.9,0.72c3.59-0.93,8.42-3.58,11.3-5.99
				c1.42-1.19,2.71-2.64,3.52-4.34c0.74-1.54,0.85-3.57,0.28-5.27c-0.44-1.28-1.49-2.87-2.43-3.86c-0.52-0.55-0.97-1.07-1.57-1.58
				c-0.68-0.58-0.94-0.83-1.72-1.42c-4.97-3.73-11.46-6.05-17.72-7.43c-2.66-0.59-5.44-1.02-8.16-1.27
				C34.99,6.92,32.68,6.84,32.49,6.77"/>
		</defs>
		<use xlink:href="#SVGID_3_"  style="overflow:visible;fill-rule:evenodd;clip-rule:evenodd;fill:#F28021;"/>
		<clipPath id="SVGID_4_">
			<use xlink:href="#SVGID_3_"  style="overflow:visible;"/>
		</clipPath>
		<rect x="13.46" y="6.77" class="st1" width="54.15" height="32.12"/>
	</g>
	<g>
		<defs>
			<path id="SVGID_5_" d="M82.8,39.36v-2.42c-0.09-0.26-0.16-2.27-1.03-3.65c-0.48-0.76-1.6-1.57-2.79-1.95
				c-2.29-0.74-5.88,0.2-7.93,0.95c-2.78,1.02-4.01,1.51-6.7,2.78c-1.85,0.88-4.36,2.32-6.07,3.41c-1.59,1.01-2.72,1.83-4.18,2.91
				c-0.23,0.17-0.44,0.34-0.66,0.52c-2.12,1.72-3.61,3.38-4.57,6.13c-1.73,4.92-2.61,17.06,1.06,22.07
				c2.02,2.76,5.29,3.13,8.67,1.93c4.48-1.58,8.79-4.71,12.03-8.11l1.42-1.53c0.12-0.12,0.16-0.2,0.28-0.33
				c1.03-1.06,3.34-4.32,4.04-5.45c0.6-0.98,1.16-1.93,1.75-2.99c1.09-1.99,2.1-4.34,2.89-6.59c0.62-1.77,1.19-3.7,1.51-5.58
				C82.58,41.07,82.72,39.57,82.8,39.36"/>
		</defs>
		<use xlink:href="#SVGID_5_"  style="overflow:visible;fill-rule:evenodd;clip-rule:evenodd;fill:#F28021;"/>
		<clipPath id="SVGID_6_">
			<use xlink:href="#SVGID_5_"  style="overflow:visible;"/>
		</clipPath>
		<rect x="46.26" y="30.6" class="st2" width="36.54" height="42.64"/>
	</g>
	<path class="st3" d="M216.38,27.12c0,1.72-0.23,3.52-0.55,5.21c-0.74,4.15-1.92,4.93-4.74,4.93c-1.64,0-2.97-0.31-2.97-0.31
		l1.53-12.56c0,0,2.03-0.51,3.6-0.51c1.29,0,2.11,0.16,2.62,0.82C216.23,25.2,216.38,25.99,216.38,27.12 M222.49,27.08
		c0-2.7-0.55-4.5-1.72-5.64c-1.21-1.17-3.09-1.68-5.67-1.68c-2.58,0-5.4,0.86-5.4,0.86l0.74-2.43l0.75-6.14v-0.12
		c0-0.39-0.23-0.55-0.59-0.55h-0.2l-4.54,0.74c-0.55,0.08-0.78,0.39-0.82,0.94l-2.86,23.25c-0.12,0.74-0.2,1.33-0.2,1.84
		c0,1.06,0.39,1.72,1.92,2.23c1.49,0.51,4.15,0.94,7.2,0.94c6.26,0,8.96-2.15,10.29-6.57C222.1,32.37,222.49,29.55,222.49,27.08z
		 M191.85,31.03l-0.74,6.07c-0.55,0.16-1.84,0.43-3.29,0.43c-0.94,0-2.15-0.08-2.82-0.78c-0.39-0.39-0.59-0.9-0.59-1.68
		c0-0.78,0.2-1.72,0.7-2.35c0.59-0.71,1.49-0.86,2.47-1.02L191.85,31.03z M198.5,24.85c0-1.68-0.47-3.05-1.96-3.95
		c-1.21-0.74-3.05-1.14-5.79-1.14c-4.19,0-7.98,1.06-8.88,1.41c-0.27,0.08-0.55,0.27-0.55,0.7v0.08l0.24,2.7
		c0.04,0.23,0.19,0.35,0.43,0.35c0.08,0,0.16-0.04,0.27-0.08c1.06-0.23,4.15-1.06,6.69-1.06c1.29,0,2.19,0.12,2.74,0.39
		c0.55,0.27,0.74,0.66,0.74,1.25c0,0.59-0.2,1.92-0.2,1.92l-6.93,1.1c-1.96,0.27-4.07,0.71-5.48,2.43
		c-1.02,1.29-1.45,3.09-1.45,4.78c0,2.03,0.7,3.33,1.84,4.15c1.72,1.25,4.42,1.45,6.97,1.45c2.31,0,4.15-0.2,5.64-0.55
		c2.78-0.59,3.91-1.1,4.31-4.07l1.1-8.77C198.38,26.96,198.5,25.87,198.5,24.85z M175.45,39.88l-0.16-2.7
		c-0.04-0.27-0.12-0.47-0.43-0.47c-0.04,0-0.08,0.04-0.16,0.04c-0.31,0.04-0.7,0.12-1.33,0.12c-0.39,0-0.78-0.12-1.02-0.43
		c-0.2-0.2-0.31-0.51-0.31-0.94c0-0.78,0.12-1.49,0.23-2.19l2.62-21.25v-0.12c0-0.39-0.23-0.55-0.59-0.55h-0.2l-4.62,0.74
		c-0.55,0.08-0.66,0.31-0.74,0.82l-2.47,20c-0.12,0.98-0.39,2.35-0.39,3.52c0,1.41,0.39,2.58,1.29,3.4
		c0.82,0.82,2.15,1.29,3.95,1.29c2.27,0,3.48-0.43,3.83-0.59c0.08,0,0.47-0.23,0.47-0.66V39.88z M164.65,21.25
		c0.08-0.16,0.08-0.27,0.08-0.35c0-0.35-0.24-0.63-0.67-0.63h-4.58c-0.51,0-0.82,0.16-1.02,0.7l-5.28,16.08h-1.06l-1.76-16.12
		c-0.04-0.55-0.31-0.66-0.78-0.66h-4.54c-0.51,0-0.82,0.35-0.82,0.82v0.16l3.13,18.94c0.04,0.35,0.24,0.63,0.63,0.63h2.94l-0.71,1.8
		c-0.62,1.64-1.68,2.27-3.72,2.27c-0.82,0-1.68-0.08-2.27-0.08h-0.08c-0.55,0-0.71,0.39-0.78,0.78L143,48.02v0.16
		c0,0.35,0.16,0.51,0.51,0.59c0.55,0.08,1.25,0.27,3.95,0.27c5.17,0,6.85-2.35,8.34-5.99L164.65,21.25z M139.44,12.68v-0.04
		c0-0.39-0.31-0.7-0.74-0.7h-9.63c-0.43,0-0.78,0.35-0.9,0.74l-6.22,16.45h-0.2l-2.11-16.45c-0.04-0.39-0.31-0.74-0.74-0.74h-10.1
		c-0.43,0-0.82,0.31-0.9,0.74l-5.67,27.44c0,0.04-0.04,0.08-0.04,0.12c0,0.35,0.35,0.59,0.74,0.59h4.58c0.43,0,0.78-0.31,0.86-0.7
		l4.58-23.68h1.25l2.66,18.6c0.08,0.39,0.27,0.74,0.74,0.74h6.11c0.51,0,0.78-0.35,0.94-0.71l7.59-18.64h1.21l-1.53,23.68v0.04
		c0,0.39,0.27,0.66,0.7,0.66h4.93c0.43,0,0.86-0.31,0.86-0.7L139.44,12.68z"/>
	<path class="st3" d="M222.49,57.06v-0.04c0-0.07-0.03-0.12-0.12-0.13c-0.14-0.04-1.01-0.28-2.19-0.28c-0.82,0-1.85,0.17-2.48,0.82
		c-0.4,0.41-0.59,0.99-0.59,1.54c0,0.46,0.16,0.79,0.4,1.01c0.49,0.5,1.34,0.58,1.77,0.64c0.66,0.11,1.25,0.12,1.56,0.39
		c0.15,0.13,0.23,0.32,0.23,0.59v0.01c0,0.33-0.1,0.66-0.34,0.89c-0.33,0.33-0.9,0.47-1.64,0.47c-1.14,0-2.05-0.34-2.16-0.38h-0.07
		c-0.1,0-0.15,0.05-0.16,0.12l-0.21,0.51c0,0.03-0.01,0.04-0.01,0.05c0,0.08,0.05,0.11,0.11,0.12c0.16,0.07,1.16,0.45,2.37,0.45
		c1.07,0,2.07-0.18,2.67-0.84c0.4-0.45,0.57-1.04,0.57-1.6c0-0.7-0.23-1.08-0.62-1.31c-0.45-0.26-1.09-0.33-1.71-0.41
		c-0.42-0.07-0.89-0.12-1.2-0.28c-0.26-0.13-0.44-0.34-0.44-0.67c0-0.3,0.11-0.6,0.34-0.82c0.36-0.32,0.96-0.43,1.61-0.43
		c0.81,0,1.79,0.22,1.98,0.25h0.03c0.04,0,0.11-0.03,0.12-0.11L222.49,57.06z M215.5,58.12c0-0.47-0.11-0.8-0.34-1.04
		c-0.34-0.34-0.93-0.47-1.79-0.47c-0.88,0-2.27,0.2-3.01,0.43c-0.71,0.22-0.77,0.46-0.83,0.99l-0.7,5.46v0.03
		c0,0.11,0.07,0.17,0.18,0.17h0.68c0.12,0,0.19-0.08,0.21-0.2l0.73-5.67c0,0,1.34-0.37,2.63-0.37c0.45,0,0.75,0.07,0.94,0.24
		c0.14,0.13,0.22,0.33,0.22,0.59c0,0.2-0.03,0.38-0.05,0.57l-0.59,4.64c-0.01,0.01-0.01,0.03-0.01,0.03c0,0.11,0.07,0.17,0.19,0.17
		h0.67c0.12,0,0.21-0.08,0.23-0.2l0.59-4.63C215.46,58.62,215.5,58.37,215.5,58.12z M206.64,59.05c0,0.34-0.04,0.74-0.1,1.18
		c-0.22,1.66-0.44,2.77-2.44,2.77c-0.66,0-1.09-0.12-1.37-0.34c-0.34-0.28-0.44-0.71-0.44-1.26c0-0.64,0.14-1.71,0.29-2.33
		c0.26-1.01,0.75-1.63,2.23-1.63c0.71,0,1.15,0.13,1.42,0.39C206.55,58.12,206.64,58.54,206.64,59.05z M207.76,59.15
		c0-0.78-0.12-1.42-0.59-1.87c-0.42-0.42-1.12-0.67-2.24-0.67c-2.2,0-3.02,0.96-3.41,2.31c-0.22,0.74-0.34,1.68-0.34,2.49
		c0,0.72,0.15,1.34,0.59,1.78c0.42,0.42,1.12,0.67,2.24,0.67c2.86,0,3.41-1.64,3.67-3.62C207.72,59.86,207.76,59.49,207.76,59.15z
		 M200.31,53.99v-0.03c0-0.11-0.07-0.17-0.18-0.17h-0.67c-0.12,0-0.22,0.08-0.23,0.2l-0.19,1.42v0.03c0,0.09,0.08,0.16,0.19,0.16
		h0.67c0.12,0,0.21-0.08,0.22-0.18L200.31,53.99z M199.92,56.98v-0.04c0-0.09-0.07-0.16-0.18-0.16h-0.67c-0.12,0-0.22,0.08-0.23,0.2
		l-0.83,6.51v0.03c0,0.11,0.07,0.17,0.18,0.17h0.68c0.12,0,0.21-0.08,0.22-0.2L199.92,56.98z M197.28,56.98v-0.03
		c0-0.11-0.07-0.17-0.18-0.17h-2.29l0.27-2.16v-0.04c0-0.07-0.03-0.13-0.11-0.13h-0.05l-0.75,0.18c-0.11,0.01-0.18,0.05-0.19,0.16
		l-0.9,7.03c-0.03,0.21-0.05,0.41-0.05,0.62c0,0.49,0.16,0.84,0.47,1.08c0.3,0.22,0.74,0.33,1.33,0.33c0.79,0,1.4-0.16,1.71-0.25
		c0.05-0.01,0.12-0.08,0.12-0.16l-0.05-0.49c-0.01-0.08-0.08-0.12-0.15-0.12h-0.03c-0.29,0.07-0.86,0.17-1.27,0.17
		c-0.34,0-0.6-0.03-0.78-0.14c-0.16-0.11-0.26-0.28-0.26-0.57c0-0.16,0.04-0.32,0.05-0.46l0.55-4.22h2.29c0.12,0,0.22-0.08,0.23-0.2
		L197.28,56.98z M191.89,56.78v-0.04c0-0.07-0.03-0.13-0.11-0.13h-0.04l-0.77,0.17c-0.1,0.03-0.18,0.07-0.19,0.17l-0.55,4.25
		c-0.12,0.99-0.37,1.83-2.15,1.83c-0.49,0-0.86-0.07-1.14-0.2c-0.41-0.2-0.59-0.55-0.59-1.08c0-0.17,0-0.33,0.03-0.51l0.57-4.46
		v-0.04c0-0.07-0.03-0.13-0.11-0.13h-0.04l-0.77,0.17c-0.1,0.03-0.18,0.07-0.19,0.17l-0.53,4.18c-0.04,0.25-0.05,0.49-0.05,0.72
		c0,0.7,0.21,1.22,0.71,1.56c0.42,0.29,1.07,0.43,2,0.43c2.83,0,3.19-1.45,3.37-2.75L191.89,56.78z M183.86,63.47l-0.04-0.46
		c0-0.08-0.04-0.09-0.08-0.09h-0.05c-0.08,0.03-0.31,0.05-0.51,0.05c-0.15,0-0.31-0.01-0.42-0.12c-0.08-0.07-0.12-0.16-0.12-0.32
		c0-0.16,0.05-0.47,0.07-0.54l1.03-8.03v-0.04c0-0.07-0.03-0.13-0.11-0.13h-0.04l-0.77,0.18c-0.11,0.01-0.18,0.05-0.19,0.16
		l-1.01,7.94c-0.03,0.24-0.05,0.46-0.05,0.71c0,0.32,0.11,0.55,0.27,0.72c0.21,0.21,0.52,0.3,0.92,0.3c0.49,0,0.89-0.11,1.01-0.16
		c0.03-0.01,0.11-0.05,0.11-0.16V63.47z M179.25,59.05c0,0.34-0.04,0.74-0.1,1.18c-0.22,1.66-0.44,2.77-2.44,2.77
		c-0.66,0-1.09-0.12-1.37-0.34c-0.34-0.28-0.44-0.71-0.44-1.26c0-0.64,0.14-1.71,0.29-2.33c0.26-1.01,0.75-1.63,2.23-1.63
		c0.71,0,1.15,0.13,1.42,0.39C179.15,58.12,179.25,58.54,179.25,59.05z M180.37,59.15c0-0.78-0.12-1.42-0.59-1.87
		c-0.42-0.42-1.12-0.67-2.24-0.67c-2.2,0-3.02,0.96-3.41,2.31c-0.22,0.74-0.34,1.68-0.34,2.49c0,0.72,0.15,1.34,0.59,1.78
		c0.42,0.42,1.12,0.67,2.24,0.67c2.86,0,3.41-1.64,3.67-3.62C180.33,59.86,180.37,59.49,180.37,59.15z M172.87,57.06v-0.04
		c0-0.07-0.03-0.12-0.12-0.13c-0.14-0.04-1.01-0.28-2.19-0.28c-0.82,0-1.85,0.17-2.48,0.82c-0.4,0.41-0.59,0.99-0.59,1.54
		c0,0.46,0.16,0.79,0.4,1.01c0.49,0.5,1.34,0.58,1.77,0.64c0.66,0.11,1.25,0.12,1.56,0.39c0.15,0.13,0.23,0.32,0.23,0.59v0.01
		c0,0.33-0.1,0.66-0.34,0.89c-0.33,0.33-0.9,0.47-1.64,0.47c-1.14,0-2.05-0.34-2.16-0.38h-0.07c-0.1,0-0.15,0.05-0.16,0.12
		l-0.21,0.51c0,0.03-0.01,0.04-0.01,0.05c0,0.08,0.05,0.11,0.11,0.12c0.16,0.07,1.16,0.45,2.37,0.45c1.07,0,2.07-0.18,2.67-0.84
		c0.4-0.45,0.57-1.04,0.57-1.6c0-0.7-0.23-1.08-0.62-1.31c-0.45-0.26-1.09-0.33-1.71-0.41c-0.42-0.07-0.89-0.12-1.2-0.28
		c-0.26-0.13-0.44-0.34-0.44-0.67c0-0.3,0.11-0.6,0.34-0.82c0.36-0.32,0.96-0.43,1.61-0.43c0.81,0,1.79,0.22,1.98,0.25h0.03
		c0.04,0,0.11-0.03,0.12-0.11L172.87,57.06z M162.56,56.98c0.01-0.03,0.01-0.04,0.01-0.07c0-0.08-0.07-0.13-0.15-0.13h-0.85
		c-0.14,0-0.22,0.08-0.26,0.17l-2.5,5.97h-0.36l-1.18-5.97c-0.03-0.09-0.05-0.17-0.19-0.17h-0.79c-0.1,0-0.19,0.08-0.19,0.17
		c0,0.01,0,0.03,0.01,0.04l1.45,6.48c0.03,0.13,0.12,0.21,0.25,0.21h0.56l-0.44,1c-0.31,0.74-0.73,0.87-1.44,0.87
		c-0.27,0-0.66-0.01-0.79-0.01c-0.08,0-0.16,0.07-0.16,0.13l-0.08,0.58v0.01c0,0.05,0.03,0.11,0.14,0.13
		c0.26,0.04,0.51,0.05,0.94,0.05c1.46,0,1.94-0.53,2.5-1.75L162.56,56.98z M155.58,56.81c0.01-0.01,0.01-0.03,0.01-0.04
		c0-0.13-0.12-0.16-0.18-0.16h-0.34c-0.66,0-1.92,0.17-2.55,0.43c-0.49,0.21-0.64,0.38-0.71,0.96l-0.7,5.48v0.01
		c0,0.11,0.18,0.18,0.18,0.18h0.68c0.12,0,0.21-0.08,0.22-0.2l0.73-5.71c0.79-0.18,1.53-0.25,2.44-0.25c0.11,0,0.14-0.07,0.15-0.16
		L155.58,56.81z M149.02,58.74c0,1.45-1.19,1.34-4.08,1.51c0.11-1.43,0.56-2.81,2.42-2.81C148.33,57.44,149.02,57.78,149.02,58.74z
		 M150.15,58.73c0-1.72-1.19-2.12-2.65-2.12c-1.15,0-2.01,0.26-2.61,0.85c-0.68,0.67-1.12,2.16-1.12,3.54
		c0,1.25,0.14,2.85,2.98,2.85c0.85,0,1.72-0.13,2.52-0.38c0.1-0.03,0.16-0.08,0.16-0.16v-0.04l-0.12-0.51
		c-0.01-0.09-0.05-0.12-0.11-0.12c-0.03,0-0.05,0-0.08,0.01c-0.67,0.17-1.4,0.36-2.08,0.36c-1.23,0-2.18-0.34-2.18-1.7
		c0-0.13,0.01-0.25,0.01-0.25C148.43,60.93,150.15,60.91,150.15,58.73z M143.36,56.98c0.01-0.03,0.03-0.04,0.03-0.07
		c0-0.08-0.07-0.13-0.15-0.13h-0.86c-0.12,0-0.21,0.08-0.25,0.17l-2.52,5.97h-0.36l-1.18-5.97c-0.03-0.09-0.05-0.17-0.19-0.17h-0.81
		c-0.1,0-0.16,0.11-0.16,0.2v0.04l1.45,6.46c0.03,0.13,0.12,0.21,0.26,0.21h1.44c0.12,0,0.25-0.08,0.3-0.21L143.36,56.98z
		 M134.74,59.05c0,0.34-0.04,0.74-0.1,1.18c-0.22,1.66-0.44,2.77-2.44,2.77c-0.66,0-1.09-0.12-1.37-0.34
		c-0.34-0.28-0.44-0.71-0.44-1.26c0-0.64,0.14-1.71,0.29-2.33c0.26-1.01,0.75-1.63,2.23-1.63c0.71,0,1.15,0.13,1.42,0.39
		C134.65,58.12,134.74,58.54,134.74,59.05z M135.86,59.15c0-0.78-0.12-1.42-0.59-1.87c-0.42-0.42-1.12-0.67-2.24-0.67
		c-2.2,0-3.02,0.96-3.41,2.31c-0.22,0.74-0.34,1.68-0.34,2.49c0,0.72,0.15,1.34,0.59,1.78c0.42,0.42,1.12,0.67,2.24,0.67
		c2.86,0,3.41-1.64,3.67-3.62C135.82,59.86,135.86,59.49,135.86,59.15z M128.68,57.19c0.01-0.03,0.01-0.07,0.01-0.09
		c0-0.09-0.07-0.12-0.11-0.14c-0.33-0.14-1.26-0.34-2.07-0.34c-1.77,0-2.71,0.55-3.22,1.72c-0.37,0.82-0.56,2.12-0.56,3.08
		c0,0.83,0.19,1.43,0.64,1.84c0.44,0.41,1.15,0.6,2.22,0.6c0.79,0,1.78-0.2,2.15-0.34c0.04-0.03,0.15-0.07,0.15-0.21v-0.03
		l-0.04-0.42c-0.01-0.11-0.05-0.16-0.14-0.16c-0.03,0-0.05,0.01-0.1,0.01c-0.3,0.08-1.15,0.29-1.87,0.29
		c-0.68,0-1.16-0.11-1.46-0.39c-0.29-0.29-0.41-0.72-0.41-1.37c0-0.75,0.15-1.89,0.44-2.56c0.37-0.89,1.01-1.21,2.15-1.21
		c0.73,0,1.52,0.24,1.81,0.32c0.03,0,0.05,0.01,0.07,0.01c0.1,0,0.15-0.05,0.18-0.16L128.68,57.19z M121.76,57.06v-0.04
		c0-0.07-0.03-0.12-0.12-0.13c-0.14-0.04-1.01-0.28-2.19-0.28c-0.82,0-1.85,0.17-2.48,0.82c-0.4,0.41-0.59,0.99-0.59,1.54
		c0,0.46,0.16,0.79,0.4,1.01c0.49,0.5,1.34,0.58,1.77,0.64c0.66,0.11,1.25,0.12,1.56,0.39c0.15,0.13,0.23,0.32,0.23,0.59v0.01
		c0,0.33-0.1,0.66-0.34,0.89c-0.33,0.33-0.9,0.47-1.64,0.47c-1.14,0-2.05-0.34-2.16-0.38h-0.07c-0.1,0-0.15,0.05-0.16,0.12
		l-0.21,0.51c0,0.03-0.01,0.04-0.01,0.05c0,0.08,0.05,0.11,0.11,0.12c0.16,0.07,1.16,0.45,2.37,0.45c1.07,0,2.07-0.18,2.67-0.84
		c0.4-0.45,0.57-1.04,0.57-1.6c0-0.7-0.23-1.08-0.62-1.31c-0.45-0.26-1.09-0.33-1.71-0.41c-0.42-0.07-0.89-0.12-1.2-0.28
		c-0.26-0.13-0.44-0.34-0.44-0.67c0-0.3,0.11-0.6,0.34-0.82c0.36-0.32,0.96-0.43,1.61-0.43c0.81,0,1.79,0.22,1.98,0.25h0.03
		c0.04,0,0.11-0.03,0.12-0.11L121.76,57.06z M115.16,53.99v-0.03c0-0.11-0.07-0.17-0.18-0.17h-0.67c-0.12,0-0.22,0.08-0.23,0.2
		l-0.19,1.42v0.03c0,0.09,0.08,0.16,0.19,0.16h0.67c0.12,0,0.21-0.08,0.22-0.18L115.16,53.99z M114.78,56.98v-0.04
		c0-0.09-0.07-0.16-0.18-0.16h-0.67c-0.12,0-0.22,0.08-0.23,0.2l-0.83,6.51v0.03c0,0.11,0.07,0.17,0.18,0.17h0.68
		c0.12,0,0.21-0.08,0.22-0.2L114.78,56.98z M110.45,57.56c0,0.81-0.12,1.64-0.31,2.43c-0.57,2.4-1.79,2.72-3.93,2.72h-2.53l1-7.77
		h2.52c1.4,0,2.37,0.12,2.86,0.85C110.33,56.19,110.45,56.74,110.45,57.56z M111.64,57.41c0-1.13-0.22-1.85-0.62-2.38
		c-0.68-0.87-1.92-1.05-3.54-1.05h-3.63c-0.12,0-0.23,0.09-0.25,0.21l-1.19,9.28v0.03c0,0.11,0.08,0.18,0.19,0.18h3.64
		c2.55,0,4.23-0.46,4.99-3.31C111.51,59.42,111.64,58.39,111.64,57.41z"/>
	<path class="st3" d="M222.48,72.31c0.01-0.02,0.01-0.03,0.01-0.05c0-0.06-0.05-0.1-0.11-0.1h-0.6c-0.1,0-0.15,0.06-0.18,0.12
		l-1.76,4.36h-0.25l-0.83-4.36c-0.02-0.07-0.04-0.12-0.13-0.12h-0.56c-0.07,0-0.13,0.06-0.13,0.12c0,0.01,0,0.02,0.01,0.03
		l1.02,4.74c0.02,0.1,0.09,0.15,0.17,0.15h0.39l-0.31,0.73c-0.22,0.54-0.51,0.63-1.01,0.63c-0.19,0-0.46-0.01-0.56-0.01
		c-0.06,0-0.12,0.05-0.12,0.1l-0.06,0.42v0.01c0,0.04,0.02,0.08,0.1,0.1c0.18,0.03,0.36,0.04,0.66,0.04c1.03,0,1.36-0.38,1.76-1.28
		L222.48,72.31z M217.58,72.19c0.01-0.01,0.01-0.02,0.01-0.03c0-0.1-0.09-0.12-0.12-0.12h-0.24c-0.46,0-1.35,0.12-1.79,0.32
		c-0.35,0.15-0.45,0.28-0.5,0.7l-0.49,4.01v0.01c0,0.08,0.12,0.13,0.12,0.13h0.48c0.09,0,0.14-0.06,0.15-0.14l0.51-4.17
		c0.56-0.13,1.08-0.18,1.71-0.18c0.08,0,0.1-0.05,0.11-0.12L217.58,72.19z M212.97,73.6c0,1.06-0.84,0.98-2.86,1.11
		c0.08-1.05,0.39-2.06,1.7-2.06C212.49,72.65,212.97,72.9,212.97,73.6z M213.76,73.59c0-1.26-0.84-1.55-1.86-1.55
		c-0.81,0-1.41,0.19-1.84,0.62c-0.48,0.49-0.79,1.58-0.79,2.59c0,0.91,0.1,2.09,2.09,2.09c0.6,0,1.21-0.1,1.77-0.28
		c0.07-0.02,0.12-0.06,0.12-0.12v-0.03l-0.09-0.37c-0.01-0.07-0.04-0.09-0.08-0.09c-0.02,0-0.04,0-0.06,0.01
		c-0.47,0.12-0.98,0.26-1.46,0.26c-0.86,0-1.53-0.25-1.53-1.24c0-0.1,0.01-0.18,0.01-0.18C212.55,75.21,213.76,75.19,213.76,73.59z
		 M209,72.31c0.01-0.02,0.02-0.03,0.02-0.05c0-0.06-0.05-0.1-0.11-0.1h-0.61c-0.09,0-0.14,0.06-0.17,0.12l-1.77,4.36h-0.25
		l-0.83-4.36c-0.02-0.07-0.04-0.12-0.13-0.12h-0.57c-0.07,0-0.12,0.08-0.12,0.14v0.03l1.02,4.72c0.02,0.1,0.09,0.15,0.18,0.15h1.01
		c0.09,0,0.17-0.06,0.21-0.15L209,72.31z M203.74,70.13v-0.02c0-0.08-0.05-0.13-0.12-0.13h-0.47c-0.09,0-0.15,0.06-0.16,0.14
		l-0.13,1.04v0.02c0,0.07,0.06,0.12,0.13,0.12h0.47c0.09,0,0.14-0.06,0.15-0.13L203.74,70.13z M203.47,72.31v-0.03
		c0-0.07-0.05-0.12-0.12-0.12h-0.47c-0.09,0-0.15,0.06-0.16,0.14l-0.59,4.76v0.02c0,0.08,0.05,0.12,0.12,0.12h0.48
		c0.09,0,0.14-0.06,0.15-0.14L203.47,72.31z M201.12,77.06l-0.03-0.34c0-0.06-0.03-0.07-0.06-0.07h-0.04
		c-0.06,0.02-0.22,0.04-0.36,0.04c-0.11,0-0.22-0.01-0.3-0.09c-0.06-0.05-0.09-0.12-0.09-0.23s0.04-0.35,0.05-0.39l0.72-5.87v-0.03
		c0-0.05-0.02-0.1-0.08-0.1h-0.03l-0.54,0.13c-0.08,0.01-0.12,0.04-0.13,0.12l-0.71,5.8c-0.02,0.17-0.04,0.34-0.04,0.52
		c0,0.23,0.08,0.4,0.19,0.53c0.14,0.15,0.37,0.22,0.64,0.22c0.35,0,0.62-0.08,0.71-0.12c0.02-0.01,0.08-0.04,0.08-0.12V77.06z
		 M197.93,73.6c0,1.06-0.84,0.98-2.86,1.11c0.08-1.05,0.39-2.06,1.7-2.06C197.45,72.65,197.93,72.9,197.93,73.6z M198.72,73.59
		c0-1.26-0.84-1.55-1.86-1.55c-0.81,0-1.41,0.19-1.84,0.62c-0.48,0.49-0.79,1.58-0.79,2.59c0,0.91,0.1,2.09,2.09,2.09
		c0.6,0,1.21-0.1,1.77-0.28c0.07-0.02,0.12-0.06,0.12-0.12v-0.03l-0.09-0.37c-0.01-0.07-0.04-0.09-0.08-0.09
		c-0.02,0-0.04,0-0.06,0.01c-0.47,0.12-0.98,0.26-1.46,0.26c-0.86,0-1.53-0.25-1.53-1.24c0-0.1,0.01-0.18,0.01-0.18
		C197.51,75.21,198.72,75.19,198.72,73.59z M192.7,72.74c0,0.59-0.09,1.2-0.22,1.77c-0.4,1.76-1.26,1.99-2.76,1.99h-1.78l0.7-5.68
		h1.77c0.98,0,1.66,0.09,2.01,0.62C192.61,71.74,192.7,72.14,192.7,72.74z M193.54,72.63c0-0.82-0.15-1.35-0.43-1.74
		c-0.48-0.63-1.35-0.77-2.49-0.77h-2.55c-0.09,0-0.16,0.07-0.17,0.15l-0.84,6.78v0.02c0,0.08,0.06,0.13,0.13,0.13h2.56
		c1.79,0,2.97-0.34,3.51-2.42C193.44,74.1,193.54,73.35,193.54,72.63z M182.36,73.83c0,0.25-0.03,0.54-0.07,0.86
		c-0.15,1.21-0.31,2.03-1.71,2.03c-0.46,0-0.77-0.09-0.96-0.25c-0.24-0.2-0.31-0.52-0.31-0.92c0-0.47,0.1-1.25,0.2-1.7
		c0.18-0.74,0.53-1.19,1.57-1.19c0.5,0,0.81,0.1,1,0.29C182.29,73.15,182.36,73.46,182.36,73.83z M183.15,73.9
		c0-0.57-0.09-1.04-0.41-1.36c-0.3-0.31-0.79-0.49-1.58-0.49c-1.55,0-2.12,0.7-2.39,1.69c-0.15,0.54-0.24,1.23-0.24,1.82
		c0,0.53,0.11,0.98,0.41,1.3c0.3,0.31,0.79,0.49,1.58,0.49c2.01,0,2.39-1.2,2.58-2.64C183.12,74.42,183.15,74.15,183.15,73.9z
		 M178.18,72.31V72.3c0-0.08-0.05-0.12-0.12-0.12h-1.6l0.19-1.58v-0.03c0-0.05-0.02-0.1-0.08-0.1h-0.04L176,70.6
		c-0.08,0.01-0.12,0.04-0.13,0.12l-0.63,5.14c-0.02,0.15-0.04,0.3-0.04,0.45c0,0.36,0.12,0.62,0.33,0.79
		c0.21,0.16,0.52,0.24,0.93,0.24c0.56,0,0.98-0.12,1.2-0.18c0.04-0.01,0.09-0.06,0.09-0.12l-0.04-0.36
		c-0.01-0.06-0.06-0.09-0.11-0.09h-0.02c-0.2,0.05-0.61,0.12-0.89,0.12c-0.24,0-0.42-0.02-0.55-0.11c-0.12-0.08-0.18-0.2-0.18-0.41
		c0-0.12,0.03-0.23,0.04-0.34l0.38-3.08h1.6c0.09,0,0.15-0.06,0.16-0.14L178.18,72.31z M171.85,72.31c0.01-0.02,0.01-0.03,0.01-0.05
		c0-0.06-0.05-0.1-0.11-0.1h-0.6c-0.1,0-0.15,0.06-0.18,0.12l-1.76,4.36h-0.25l-0.83-4.36c-0.02-0.07-0.04-0.12-0.13-0.12h-0.56
		c-0.07,0-0.13,0.06-0.13,0.12c0,0.01,0,0.02,0.01,0.03l1.02,4.74c0.02,0.1,0.09,0.15,0.17,0.15h0.39l-0.31,0.73
		c-0.22,0.54-0.51,0.63-1.01,0.63c-0.19,0-0.46-0.01-0.56-0.01c-0.06,0-0.12,0.05-0.12,0.1l-0.06,0.42v0.01
		c0,0.04,0.02,0.08,0.1,0.1c0.18,0.03,0.36,0.04,0.66,0.04c1.03,0,1.36-0.38,1.76-1.28L171.85,72.31z M166.95,72.19
		c0.01-0.01,0.01-0.02,0.01-0.03c0-0.1-0.09-0.12-0.12-0.12h-0.24c-0.46,0-1.35,0.12-1.79,0.32c-0.35,0.15-0.45,0.28-0.5,0.7
		l-0.49,4.01v0.01c0,0.08,0.12,0.13,0.12,0.13h0.48c0.09,0,0.14-0.06,0.15-0.14l0.51-4.17c0.56-0.13,1.08-0.18,1.71-0.18
		c0.08,0,0.1-0.05,0.11-0.12L166.95,72.19z M162.33,73.6c0,1.06-0.84,0.98-2.86,1.11c0.08-1.05,0.39-2.06,1.7-2.06
		C161.85,72.65,162.33,72.9,162.33,73.6z M163.13,73.59c0-1.26-0.84-1.55-1.86-1.55c-0.81,0-1.41,0.19-1.84,0.62
		c-0.48,0.49-0.79,1.58-0.79,2.59c0,0.91,0.1,2.09,2.09,2.09c0.6,0,1.21-0.1,1.77-0.28c0.07-0.02,0.12-0.06,0.12-0.12v-0.03
		l-0.09-0.37c-0.01-0.07-0.04-0.09-0.08-0.09c-0.02,0-0.04,0-0.06,0.01c-0.47,0.12-0.98,0.26-1.46,0.26c-0.86,0-1.53-0.25-1.53-1.24
		c0-0.1,0.01-0.18,0.01-0.18C161.92,75.21,163.13,75.19,163.13,73.59z M158.36,72.31c0.01-0.02,0.02-0.03,0.02-0.05
		c0-0.06-0.05-0.1-0.11-0.1h-0.61c-0.09,0-0.14,0.06-0.17,0.12l-1.77,4.36h-0.25l-0.83-4.36c-0.02-0.07-0.04-0.12-0.13-0.12h-0.57
		c-0.07,0-0.12,0.08-0.12,0.14v0.03l1.02,4.72c0.02,0.1,0.09,0.15,0.18,0.15h1.01c0.09,0,0.17-0.06,0.21-0.15L158.36,72.31z
		 M152.31,73.83c0,0.25-0.03,0.54-0.07,0.86c-0.15,1.21-0.31,2.03-1.71,2.03c-0.46,0-0.77-0.09-0.96-0.25
		c-0.24-0.2-0.31-0.52-0.31-0.92c0-0.47,0.1-1.25,0.2-1.7c0.18-0.74,0.53-1.19,1.57-1.19c0.5,0,0.81,0.1,1,0.29
		C152.24,73.15,152.31,73.46,152.31,73.83z M153.1,73.9c0-0.57-0.09-1.04-0.41-1.36c-0.3-0.31-0.79-0.49-1.58-0.49
		c-1.55,0-2.12,0.7-2.39,1.69c-0.15,0.54-0.24,1.23-0.24,1.82c0,0.53,0.11,0.98,0.41,1.3c0.3,0.31,0.79,0.49,1.58,0.49
		c2.01,0,2.39-1.2,2.58-2.64C153.07,74.42,153.1,74.15,153.1,73.9z M148.05,72.47c0.01-0.02,0.01-0.05,0.01-0.07
		c0-0.07-0.05-0.09-0.08-0.11c-0.23-0.11-0.88-0.25-1.45-0.25c-1.24,0-1.9,0.4-2.26,1.26c-0.26,0.6-0.39,1.55-0.39,2.25
		c0,0.61,0.13,1.05,0.45,1.35c0.31,0.3,0.81,0.44,1.56,0.44c0.56,0,1.25-0.14,1.51-0.25c0.03-0.02,0.11-0.05,0.11-0.15v-0.02
		l-0.03-0.31c-0.01-0.08-0.04-0.12-0.1-0.12c-0.02,0-0.04,0.01-0.07,0.01c-0.21,0.06-0.81,0.21-1.32,0.21
		c-0.48,0-0.82-0.08-1.03-0.29c-0.2-0.21-0.29-0.53-0.29-1c0-0.55,0.11-1.38,0.31-1.87c0.26-0.65,0.71-0.88,1.51-0.88
		c0.51,0,1.07,0.17,1.27,0.23c0.02,0,0.04,0.01,0.05,0.01c0.07,0,0.11-0.04,0.12-0.12L148.05,72.47z M143.19,72.37v-0.03
		c0-0.05-0.02-0.09-0.09-0.1c-0.1-0.03-0.71-0.2-1.54-0.2c-0.58,0-1.3,0.12-1.74,0.6c-0.28,0.3-0.41,0.72-0.41,1.12
		c0,0.34,0.12,0.58,0.28,0.74c0.35,0.37,0.94,0.42,1.24,0.47c0.46,0.08,0.87,0.09,1.1,0.29c0.11,0.1,0.16,0.23,0.16,0.43v0.01
		c0,0.24-0.07,0.48-0.24,0.65c-0.23,0.24-0.63,0.35-1.15,0.35c-0.8,0-1.44-0.25-1.52-0.28h-0.05c-0.07,0-0.11,0.04-0.12,0.09
		l-0.14,0.37c0,0.02-0.01,0.03-0.01,0.04c0,0.06,0.04,0.08,0.08,0.09c0.12,0.05,0.82,0.33,1.66,0.33c0.75,0,1.45-0.13,1.87-0.62
		c0.28-0.33,0.4-0.76,0.4-1.17c0-0.51-0.16-0.79-0.43-0.96c-0.32-0.19-0.77-0.24-1.2-0.3c-0.3-0.05-0.62-0.09-0.85-0.2
		c-0.18-0.1-0.31-0.25-0.31-0.49c0-0.22,0.08-0.44,0.24-0.6c0.25-0.23,0.67-0.32,1.13-0.32c0.57,0,1.26,0.16,1.39,0.18h0.02
		c0.03,0,0.08-0.02,0.09-0.08L143.19,72.37z M138.56,70.13v-0.02c0-0.08-0.05-0.13-0.12-0.13h-0.47c-0.09,0-0.15,0.06-0.16,0.14
		l-0.13,1.04v0.02c0,0.07,0.06,0.12,0.13,0.12h0.47c0.09,0,0.14-0.06,0.15-0.13L138.56,70.13z M138.29,72.31v-0.03
		c0-0.07-0.05-0.12-0.12-0.12h-0.47c-0.09,0-0.15,0.06-0.16,0.14l-0.59,4.76v0.02c0,0.08,0.05,0.12,0.12,0.12h0.48
		c0.09,0,0.14-0.06,0.15-0.14L138.29,72.31z M135.25,72.74c0,0.59-0.09,1.2-0.22,1.77c-0.4,1.76-1.26,1.99-2.76,1.99h-1.78l0.7-5.68
		h1.77c0.98,0,1.66,0.09,2.01,0.62C135.17,71.74,135.25,72.14,135.25,72.74z M136.09,72.63c0-0.82-0.15-1.35-0.43-1.74
		c-0.48-0.63-1.35-0.77-2.49-0.77h-2.55c-0.09,0-0.16,0.07-0.17,0.15l-0.84,6.78v0.02c0,0.08,0.06,0.13,0.13,0.13h2.56
		c1.79,0,2.97-0.34,3.51-2.42C135.99,74.1,136.09,73.35,136.09,72.63z M124.5,77.73c0,0.24-0.11,0.45-0.28,0.62
		c-0.37,0.31-0.98,0.35-1.4,0.35c-0.45,0-0.85-0.02-1.12-0.13c-0.22-0.1-0.37-0.25-0.37-0.52c0-0.19,0.05-0.34,0.12-0.46
		c0.18-0.27,0.54-0.37,0.91-0.37h1.3c0.27,0,0.55,0.02,0.7,0.17C124.45,77.47,124.5,77.57,124.5,77.73z M124.71,73.6
		c0,0.29-0.08,0.62-0.24,0.86c-0.25,0.37-0.69,0.51-1.28,0.51c-0.43,0-0.78-0.08-0.99-0.28c-0.15-0.15-0.23-0.37-0.23-0.68
		c0-0.34,0.09-0.67,0.28-0.92c0.26-0.34,0.69-0.46,1.24-0.46c0.42,0,0.76,0.08,0.97,0.28C124.63,73.05,124.71,73.29,124.71,73.6z
		 M126.3,72.53l-0.12-0.48c-0.01-0.04-0.02-0.06-0.04-0.06c-0.02,0-0.05,0.02-0.08,0.03c-0.14,0.07-0.35,0.15-0.53,0.2
		c-0.14,0.04-0.31,0.07-0.45,0.07c-0.13,0-0.25-0.02-0.35-0.04c-0.36-0.11-0.59-0.2-1.18-0.2c-0.91,0-1.66,0.24-2.05,0.89
		c-0.2,0.34-0.3,0.75-0.3,1.15c0,0.32,0.06,0.54,0.16,0.69c0.19,0.29,0.52,0.37,0.77,0.45c-0.55,0.09-0.87,0.18-1.04,0.46
		c-0.1,0.15-0.13,0.37-0.13,0.56c0,0.19,0.05,0.33,0.12,0.41c0.13,0.14,0.36,0.18,0.6,0.24l-0.01,0.11
		c-0.37,0.07-0.75,0.17-0.96,0.52c-0.12,0.2-0.15,0.45-0.15,0.69c0,0.39,0.17,0.66,0.53,0.83c0.37,0.17,0.91,0.24,1.65,0.24
		c0.97,0,1.76-0.19,2.19-0.74c0.22-0.27,0.35-0.65,0.35-1.01c0-0.3-0.09-0.5-0.25-0.65c-0.26-0.23-0.68-0.32-1.2-0.32h-1.45
		c-0.22,0-0.39-0.03-0.51-0.11c-0.09-0.07-0.12-0.17-0.12-0.32c0-0.14,0.03-0.29,0.12-0.38c0.1-0.12,0.26-0.2,0.56-0.2h0.7
		c0.87,0,1.58-0.19,1.98-0.76c0.22-0.31,0.36-0.77,0.36-1.16c0-0.59-0.29-0.86-0.29-0.86c0.21,0.04,0.22,0.05,0.37,0.05
		c0.23,0,0.48-0.06,0.7-0.2c0.05-0.03,0.06-0.04,0.06-0.06C126.31,72.55,126.3,72.54,126.3,72.53z M120.09,73.15
		c0-0.35-0.08-0.59-0.24-0.76c-0.24-0.25-0.65-0.35-1.26-0.35c-0.62,0-1.6,0.14-2.11,0.32c-0.5,0.16-0.54,0.34-0.59,0.72l-0.49,3.99
		v0.02c0,0.08,0.05,0.12,0.12,0.12H116c0.09,0,0.13-0.06,0.14-0.14l0.51-4.14c0,0,0.94-0.27,1.85-0.27c0.32,0,0.53,0.05,0.66,0.17
		c0.1,0.1,0.15,0.24,0.15,0.43c0,0.14-0.02,0.28-0.04,0.41l-0.41,3.39c-0.01,0.01-0.01,0.02-0.01,0.02c0,0.08,0.05,0.12,0.13,0.12
		h0.47c0.09,0,0.14-0.06,0.16-0.14l0.41-3.38C120.06,73.52,120.09,73.33,120.09,73.15z M114.76,70.13v-0.02
		c0-0.08-0.05-0.13-0.12-0.13h-0.47c-0.09,0-0.15,0.06-0.16,0.14l-0.13,1.04v0.02c0,0.07,0.06,0.12,0.13,0.12h0.47
		c0.09,0,0.14-0.06,0.15-0.13L114.76,70.13z M114.5,72.31v-0.03c0-0.07-0.05-0.12-0.12-0.12h-0.47c-0.09,0-0.15,0.06-0.16,0.14
		l-0.59,4.76v0.02c0,0.08,0.05,0.12,0.12,0.12h0.48c0.09,0,0.14-0.06,0.15-0.14L114.5,72.31z M112.64,72.31V72.3
		c0-0.08-0.05-0.12-0.12-0.12h-1.6l0.19-1.58v-0.03c0-0.05-0.02-0.1-0.08-0.1h-0.04l-0.53,0.13c-0.08,0.01-0.12,0.04-0.13,0.12
		l-0.63,5.14c-0.02,0.15-0.04,0.3-0.04,0.45c0,0.36,0.12,0.62,0.33,0.79c0.21,0.16,0.52,0.24,0.93,0.24c0.56,0,0.98-0.12,1.2-0.18
		c0.04-0.01,0.09-0.06,0.09-0.12l-0.04-0.36c-0.01-0.06-0.06-0.09-0.11-0.09h-0.02c-0.2,0.05-0.61,0.12-0.89,0.12
		c-0.24,0-0.42-0.02-0.55-0.11c-0.12-0.08-0.18-0.2-0.18-0.41c0-0.12,0.03-0.23,0.04-0.34l0.38-3.08h1.6c0.09,0,0.15-0.06,0.16-0.14
		L112.64,72.31z M107.8,74.55l-0.25,2c-0.41,0.13-0.87,0.19-1.3,0.19c-0.33,0-0.69-0.02-0.95-0.17c-0.21-0.12-0.36-0.32-0.36-0.66
		c0-0.23,0.05-0.49,0.17-0.68c0.2-0.29,0.54-0.32,0.87-0.37L107.8,74.55z M108.72,73.03c0-0.3-0.08-0.56-0.38-0.73
		c-0.26-0.15-0.69-0.25-1.37-0.25c-0.87,0-1.72,0.18-2.05,0.3c-0.03,0.01-0.12,0.05-0.12,0.12v0.01l0.04,0.43
		c0.01,0.06,0.05,0.08,0.09,0.08c0.02,0,0.05-0.01,0.07-0.01c0.39-0.1,1.06-0.28,1.81-0.28c0.41,0,0.68,0.04,0.86,0.12
		c0.23,0.09,0.29,0.23,0.29,0.43c0,0.08-0.01,0.15-0.02,0.25l-0.06,0.45l-1.85,0.3c-0.65,0.11-1.18,0.16-1.52,0.58
		c-0.25,0.32-0.35,0.83-0.35,1.24c0,0.4,0.13,0.68,0.35,0.87c0.42,0.39,1.16,0.4,1.68,0.4c0.5,0,0.97-0.08,1.26-0.13
		c0.68-0.16,0.84-0.32,0.92-0.99l0.33-2.69C108.7,73.35,108.72,73.18,108.72,73.03z M103.39,77.06l-0.03-0.34
		c0-0.06-0.03-0.07-0.06-0.07h-0.04c-0.06,0.02-0.22,0.04-0.36,0.04c-0.11,0-0.22-0.01-0.3-0.09c-0.06-0.05-0.09-0.12-0.09-0.23
		s0.04-0.35,0.05-0.39l0.72-5.87v-0.03c0-0.05-0.02-0.1-0.08-0.1h-0.03l-0.54,0.13c-0.08,0.01-0.12,0.04-0.13,0.12l-0.71,5.8
		c-0.02,0.17-0.04,0.34-0.04,0.52c0,0.23,0.08,0.4,0.19,0.53c0.14,0.15,0.37,0.22,0.64,0.22c0.35,0,0.62-0.08,0.71-0.12
		c0.02-0.01,0.08-0.04,0.08-0.12V77.06z M101.01,72.37v-0.03c0-0.05-0.02-0.09-0.09-0.1c-0.1-0.03-0.71-0.2-1.54-0.2
		c-0.58,0-1.3,0.12-1.74,0.6c-0.28,0.3-0.41,0.72-0.41,1.12c0,0.34,0.12,0.58,0.28,0.74c0.35,0.37,0.94,0.42,1.24,0.47
		c0.46,0.08,0.87,0.09,1.1,0.29c0.11,0.1,0.16,0.23,0.16,0.43v0.01c0,0.24-0.07,0.48-0.24,0.65c-0.23,0.24-0.63,0.35-1.15,0.35
		c-0.8,0-1.44-0.25-1.52-0.28h-0.05c-0.07,0-0.11,0.04-0.12,0.09l-0.14,0.37c0,0.02-0.01,0.03-0.01,0.04c0,0.06,0.04,0.08,0.08,0.09
		c0.12,0.05,0.82,0.33,1.66,0.33c0.75,0,1.45-0.13,1.87-0.62c0.28-0.33,0.4-0.76,0.4-1.17c0-0.51-0.16-0.79-0.43-0.96
		c-0.32-0.19-0.77-0.24-1.2-0.3c-0.3-0.05-0.62-0.09-0.85-0.2c-0.18-0.1-0.31-0.25-0.31-0.49c0-0.22,0.08-0.44,0.24-0.6
		c0.25-0.23,0.67-0.32,1.13-0.32c0.57,0,1.26,0.16,1.39,0.18h0.02c0.03,0,0.08-0.02,0.09-0.08L101.01,72.37z M96.1,73.15
		c0-0.35-0.08-0.59-0.24-0.76c-0.24-0.25-0.65-0.35-1.26-0.35c-0.62,0-1.6,0.14-2.11,0.32c-0.5,0.16-0.54,0.34-0.59,0.72l-0.49,3.99
		v0.02c0,0.08,0.05,0.12,0.12,0.12h0.48c0.09,0,0.13-0.06,0.14-0.14l0.51-4.14c0,0,0.94-0.27,1.85-0.27c0.32,0,0.53,0.05,0.66,0.17
		c0.1,0.1,0.15,0.24,0.15,0.43c0,0.14-0.02,0.28-0.04,0.41l-0.41,3.39c-0.01,0.01-0.01,0.02-0.01,0.02c0,0.08,0.05,0.12,0.13,0.12
		h0.47c0.09,0,0.14-0.06,0.16-0.14l0.41-3.38C96.07,73.52,96.1,73.33,96.1,73.15z M89.66,74.55l-0.25,2
		c-0.41,0.13-0.87,0.19-1.3,0.19c-0.33,0-0.69-0.02-0.95-0.17c-0.21-0.12-0.36-0.32-0.36-0.66c0-0.23,0.05-0.49,0.17-0.68
		c0.2-0.29,0.54-0.32,0.87-0.37L89.66,74.55z M90.59,73.03c0-0.3-0.08-0.56-0.38-0.73c-0.26-0.15-0.69-0.25-1.37-0.25
		c-0.87,0-1.72,0.18-2.05,0.3c-0.03,0.01-0.12,0.05-0.12,0.12v0.01l0.04,0.43c0.01,0.06,0.05,0.08,0.09,0.08
		c0.02,0,0.05-0.01,0.07-0.01c0.39-0.1,1.06-0.28,1.81-0.28c0.41,0,0.68,0.04,0.86,0.12c0.23,0.09,0.29,0.23,0.29,0.43
		c0,0.08-0.01,0.15-0.02,0.25l-0.06,0.45l-1.85,0.3c-0.65,0.11-1.18,0.16-1.52,0.58c-0.25,0.32-0.35,0.83-0.35,1.24
		c0,0.4,0.13,0.68,0.35,0.87c0.42,0.39,1.16,0.4,1.68,0.4c0.5,0,0.97-0.08,1.26-0.13c0.68-0.16,0.84-0.32,0.92-0.99l0.33-2.69
		C90.57,73.35,90.59,73.18,90.59,73.03z M86.09,72.19c0.01-0.01,0.01-0.02,0.01-0.03c0-0.1-0.09-0.12-0.12-0.12h-0.24
		c-0.46,0-1.35,0.12-1.79,0.32c-0.35,0.15-0.45,0.28-0.5,0.7l-0.49,4.01v0.01c0,0.08,0.12,0.13,0.12,0.13h0.48
		c0.09,0,0.14-0.06,0.15-0.14l0.51-4.17c0.56-0.13,1.08-0.18,1.71-0.18c0.08,0,0.1-0.05,0.11-0.12L86.09,72.19z M83.98,70.28v-0.02
		c0-0.08-0.06-0.13-0.13-0.13h-5.5c-0.08,0-0.15,0.07-0.16,0.15l-0.06,0.41v0.02c0,0.08,0.06,0.13,0.13,0.13h2.34l-0.77,6.22v0.02
		c0,0.08,0.06,0.13,0.13,0.13h0.51c0.09,0,0.16-0.07,0.17-0.15l0.77-6.22h2.34c0.09,0,0.15-0.07,0.17-0.15L83.98,70.28z"/>
</g>
</svg>
